<?xml version="1.0" encoding="utf-8" standalone="no"?>
<!DOCTYPE svg PUBLIC "-//W3C//DTD SVG 1.1//EN"
  "http://www.w3.org/Graphics/SVG/1.1/DTD/svg11.dtd">
<svg xmlns:xlink="http://www.w3.org/1999/xlink" width="576pt" height="288pt" viewBox="0 0 576 288" xmlns="http://www.w3.org/2000/svg" version="1.1">
 <metadata>
  <rdf:RDF xmlns:dc="http://purl.org/dc/elements/1.1/" xmlns:cc="http://creativecommons.org/ns#" xmlns:rdf="http://www.w3.org/1999/02/22-rdf-syntax-ns#">
   <cc:Work>
    <dc:type rdf:resource="http://purl.org/dc/dcmitype/StillImage"/>
    <dc:date>2025-05-08T21:40:17.561282</dc:date>
    <dc:format>image/svg+xml</dc:format>
    <dc:creator>
     <cc:Agent>
      <dc:title>Matplotlib v3.8.4, https://matplotlib.org/</dc:title>
     </cc:Agent>
    </dc:creator>
   </cc:Work>
  </rdf:RDF>
 </metadata>
 <defs>
  <style type="text/css">*{stroke-linejoin: round; stroke-linecap: butt}</style>
 </defs>
 <g id="figure_1">
  <g id="patch_1">
   <path d="M 0 288 
L 576 288 
L 576 0 
L 0 0 
z
" style="fill: #ffffff"/>
  </g>
  <g id="axes_1">
   <g id="patch_2">
    <path d="M 72 256.32 
L 518.4 256.32 
L 518.4 34.56 
L 72 34.56 
z
" style="fill: #ffffff"/>
   </g>
   <g id="PolyCollection_1">
    <defs>
     <path id="mf3ca84f0bc" d="M 76.464 -33.835027 
L 76.464 -31.68 
L 80.928 -31.68 
L 85.392 -31.68 
L 89.856 -31.68 
L 94.32 -31.68 
L 98.784 -31.68 
L 103.248 -31.68 
L 107.712 -31.68 
L 112.176 -31.68 
L 116.64 -31.68 
L 121.104 -31.68 
L 125.568 -31.68 
L 130.032 -31.68 
L 134.496 -31.68 
L 138.96 -31.68 
L 143.424 -31.68 
L 147.888 -31.68 
L 152.352 -31.68 
L 156.816 -31.68 
L 161.28 -31.68 
L 165.744 -31.68 
L 170.208 -31.68 
L 174.672 -31.68 
L 179.136 -31.68 
L 183.6 -31.68 
L 188.064 -31.68 
L 192.528 -31.68 
L 196.992 -31.68 
L 196.992 -56.31619 
L 196.992 -56.31619 
L 192.528 -57.228641 
L 188.064 -58.211281 
L 183.6 -59.272532 
L 179.136 -60.422221 
L 174.672 -61.671883 
L 170.208 -63.03515 
L 165.744 -64.528253 
L 161.28 -66.050633 
L 156.816 -64.9916 
L 152.352 -63.854892 
L 147.888 -62.639539 
L 143.424 -61.345013 
L 138.96 -59.971274 
L 134.496 -58.518819 
L 130.032 -56.98872 
L 125.568 -55.382664 
L 121.104 -53.702982 
L 116.64 -51.952666 
L 112.176 -50.135382 
L 107.712 -48.255468 
L 103.248 -46.317917 
L 98.784 -44.328353 
L 94.32 -42.29299 
L 89.856 -40.218575 
L 85.392 -38.112323 
L 80.928 -35.981838 
L 76.464 -33.835027 
z
" style="stroke: #356854; stroke-opacity: 0.5"/>
    </defs>
    <g clip-path="url(#p785ef4b383)">
     <use xlink:href="#mf3ca84f0bc" x="0" y="288" style="fill: #356854; fill-opacity: 0.5; stroke: #356854; stroke-opacity: 0.5"/>
    </g>
   </g>
   <g id="matplotlib.axis_1">
    <g id="xtick_1">
     <g id="line2d_1">
      <path d="M 72 256.32 
L 72 34.56 
" clip-path="url(#p785ef4b383)" style="fill: none; stroke: #b0b0b0; stroke-width: 0.8; stroke-linecap: square"/>
     </g>
     <g id="line2d_2">
      <defs>
       <path id="me94633889d" d="M 0 0 
L 0 3.5 
" style="stroke: #000000; stroke-width: 0.8"/>
      </defs>
      <g>
       <use xlink:href="#me94633889d" x="72" y="256.32" style="stroke: #000000; stroke-width: 0.8"/>
      </g>
     </g>
     <g id="text_1">
      <!-- 0 -->
      <g transform="translate(68.81875 270.918437) scale(0.1 -0.1)">
       <defs>
        <path id="DejaVuSans-30" d="M 2034 4250 
Q 1547 4250 1301 3770 
Q 1056 3291 1056 2328 
Q 1056 1369 1301 889 
Q 1547 409 2034 409 
Q 2525 409 2770 889 
Q 3016 1369 3016 2328 
Q 3016 3291 2770 3770 
Q 2525 4250 2034 4250 
z
M 2034 4750 
Q 2819 4750 3233 4129 
Q 3647 3509 3647 2328 
Q 3647 1150 3233 529 
Q 2819 -91 2034 -91 
Q 1250 -91 836 529 
Q 422 1150 422 2328 
Q 422 3509 836 4129 
Q 1250 4750 2034 4750 
z
" transform="scale(0.015625)"/>
       </defs>
       <use xlink:href="#DejaVuSans-30"/>
      </g>
     </g>
    </g>
    <g id="xtick_2">
     <g id="line2d_3">
      <path d="M 161.28 256.32 
L 161.28 34.56 
" clip-path="url(#p785ef4b383)" style="fill: none; stroke: #b0b0b0; stroke-width: 0.8; stroke-linecap: square"/>
     </g>
     <g id="line2d_4">
      <g>
       <use xlink:href="#me94633889d" x="161.28" y="256.32" style="stroke: #000000; stroke-width: 0.8"/>
      </g>
     </g>
     <g id="text_2">
      <!-- 20 -->
      <g transform="translate(154.9175 270.918437) scale(0.1 -0.1)">
       <defs>
        <path id="DejaVuSans-32" d="M 1228 531 
L 3431 531 
L 3431 0 
L 469 0 
L 469 531 
Q 828 903 1448 1529 
Q 2069 2156 2228 2338 
Q 2531 2678 2651 2914 
Q 2772 3150 2772 3378 
Q 2772 3750 2511 3984 
Q 2250 4219 1831 4219 
Q 1534 4219 1204 4116 
Q 875 4013 500 3803 
L 500 4441 
Q 881 4594 1212 4672 
Q 1544 4750 1819 4750 
Q 2544 4750 2975 4387 
Q 3406 4025 3406 3419 
Q 3406 3131 3298 2873 
Q 3191 2616 2906 2266 
Q 2828 2175 2409 1742 
Q 1991 1309 1228 531 
z
" transform="scale(0.015625)"/>
       </defs>
       <use xlink:href="#DejaVuSans-32"/>
       <use xlink:href="#DejaVuSans-30" x="63.623047"/>
      </g>
     </g>
    </g>
    <g id="xtick_3">
     <g id="line2d_5">
      <path d="M 250.56 256.32 
L 250.56 34.56 
" clip-path="url(#p785ef4b383)" style="fill: none; stroke: #b0b0b0; stroke-width: 0.8; stroke-linecap: square"/>
     </g>
     <g id="line2d_6">
      <g>
       <use xlink:href="#me94633889d" x="250.56" y="256.32" style="stroke: #000000; stroke-width: 0.8"/>
      </g>
     </g>
     <g id="text_3">
      <!-- 40 -->
      <g transform="translate(244.1975 270.918437) scale(0.1 -0.1)">
       <defs>
        <path id="DejaVuSans-34" d="M 2419 4116 
L 825 1625 
L 2419 1625 
L 2419 4116 
z
M 2253 4666 
L 3047 4666 
L 3047 1625 
L 3713 1625 
L 3713 1100 
L 3047 1100 
L 3047 0 
L 2419 0 
L 2419 1100 
L 313 1100 
L 313 1709 
L 2253 4666 
z
" transform="scale(0.015625)"/>
       </defs>
       <use xlink:href="#DejaVuSans-34"/>
       <use xlink:href="#DejaVuSans-30" x="63.623047"/>
      </g>
     </g>
    </g>
    <g id="xtick_4">
     <g id="line2d_7">
      <path d="M 339.84 256.32 
L 339.84 34.56 
" clip-path="url(#p785ef4b383)" style="fill: none; stroke: #b0b0b0; stroke-width: 0.8; stroke-linecap: square"/>
     </g>
     <g id="line2d_8">
      <g>
       <use xlink:href="#me94633889d" x="339.84" y="256.32" style="stroke: #000000; stroke-width: 0.8"/>
      </g>
     </g>
     <g id="text_4">
      <!-- 60 -->
      <g transform="translate(333.4775 270.918437) scale(0.1 -0.1)">
       <defs>
        <path id="DejaVuSans-36" d="M 2113 2584 
Q 1688 2584 1439 2293 
Q 1191 2003 1191 1497 
Q 1191 994 1439 701 
Q 1688 409 2113 409 
Q 2538 409 2786 701 
Q 3034 994 3034 1497 
Q 3034 2003 2786 2293 
Q 2538 2584 2113 2584 
z
M 3366 4563 
L 3366 3988 
Q 3128 4100 2886 4159 
Q 2644 4219 2406 4219 
Q 1781 4219 1451 3797 
Q 1122 3375 1075 2522 
Q 1259 2794 1537 2939 
Q 1816 3084 2150 3084 
Q 2853 3084 3261 2657 
Q 3669 2231 3669 1497 
Q 3669 778 3244 343 
Q 2819 -91 2113 -91 
Q 1303 -91 875 529 
Q 447 1150 447 2328 
Q 447 3434 972 4092 
Q 1497 4750 2381 4750 
Q 2619 4750 2861 4703 
Q 3103 4656 3366 4563 
z
" transform="scale(0.015625)"/>
       </defs>
       <use xlink:href="#DejaVuSans-36"/>
       <use xlink:href="#DejaVuSans-30" x="63.623047"/>
      </g>
     </g>
    </g>
    <g id="xtick_5">
     <g id="line2d_9">
      <path d="M 429.12 256.32 
L 429.12 34.56 
" clip-path="url(#p785ef4b383)" style="fill: none; stroke: #b0b0b0; stroke-width: 0.8; stroke-linecap: square"/>
     </g>
     <g id="line2d_10">
      <g>
       <use xlink:href="#me94633889d" x="429.12" y="256.32" style="stroke: #000000; stroke-width: 0.8"/>
      </g>
     </g>
     <g id="text_5">
      <!-- 80 -->
      <g transform="translate(422.7575 270.918437) scale(0.1 -0.1)">
       <defs>
        <path id="DejaVuSans-38" d="M 2034 2216 
Q 1584 2216 1326 1975 
Q 1069 1734 1069 1313 
Q 1069 891 1326 650 
Q 1584 409 2034 409 
Q 2484 409 2743 651 
Q 3003 894 3003 1313 
Q 3003 1734 2745 1975 
Q 2488 2216 2034 2216 
z
M 1403 2484 
Q 997 2584 770 2862 
Q 544 3141 544 3541 
Q 544 4100 942 4425 
Q 1341 4750 2034 4750 
Q 2731 4750 3128 4425 
Q 3525 4100 3525 3541 
Q 3525 3141 3298 2862 
Q 3072 2584 2669 2484 
Q 3125 2378 3379 2068 
Q 3634 1759 3634 1313 
Q 3634 634 3220 271 
Q 2806 -91 2034 -91 
Q 1263 -91 848 271 
Q 434 634 434 1313 
Q 434 1759 690 2068 
Q 947 2378 1403 2484 
z
M 1172 3481 
Q 1172 3119 1398 2916 
Q 1625 2713 2034 2713 
Q 2441 2713 2670 2916 
Q 2900 3119 2900 3481 
Q 2900 3844 2670 4047 
Q 2441 4250 2034 4250 
Q 1625 4250 1398 4047 
Q 1172 3844 1172 3481 
z
" transform="scale(0.015625)"/>
       </defs>
       <use xlink:href="#DejaVuSans-38"/>
       <use xlink:href="#DejaVuSans-30" x="63.623047"/>
      </g>
     </g>
    </g>
    <g id="xtick_6">
     <g id="line2d_11">
      <path d="M 518.4 256.32 
L 518.4 34.56 
" clip-path="url(#p785ef4b383)" style="fill: none; stroke: #b0b0b0; stroke-width: 0.8; stroke-linecap: square"/>
     </g>
     <g id="line2d_12">
      <g>
       <use xlink:href="#me94633889d" x="518.4" y="256.32" style="stroke: #000000; stroke-width: 0.8"/>
      </g>
     </g>
     <g id="text_6">
      <!-- 100 -->
      <g transform="translate(508.85625 270.918437) scale(0.1 -0.1)">
       <defs>
        <path id="DejaVuSans-31" d="M 794 531 
L 1825 531 
L 1825 4091 
L 703 3866 
L 703 4441 
L 1819 4666 
L 2450 4666 
L 2450 531 
L 3481 531 
L 3481 0 
L 794 0 
L 794 531 
z
" transform="scale(0.015625)"/>
       </defs>
       <use xlink:href="#DejaVuSans-31"/>
       <use xlink:href="#DejaVuSans-30" x="63.623047"/>
       <use xlink:href="#DejaVuSans-30" x="127.246094"/>
      </g>
     </g>
    </g>
    <g id="text_7">
     <!-- W/S $(lb/ft^2)$ -->
     <g transform="translate(267.2 285.418437) scale(0.1 -0.1)">
      <defs>
       <path id="DejaVuSans-57" d="M 213 4666 
L 850 4666 
L 1831 722 
L 2809 4666 
L 3519 4666 
L 4500 722 
L 5478 4666 
L 6119 4666 
L 4947 0 
L 4153 0 
L 3169 4050 
L 2175 0 
L 1381 0 
L 213 4666 
z
" transform="scale(0.015625)"/>
       <path id="DejaVuSans-2f" d="M 1625 4666 
L 2156 4666 
L 531 -594 
L 0 -594 
L 1625 4666 
z
" transform="scale(0.015625)"/>
       <path id="DejaVuSans-53" d="M 3425 4513 
L 3425 3897 
Q 3066 4069 2747 4153 
Q 2428 4238 2131 4238 
Q 1616 4238 1336 4038 
Q 1056 3838 1056 3469 
Q 1056 3159 1242 3001 
Q 1428 2844 1947 2747 
L 2328 2669 
Q 3034 2534 3370 2195 
Q 3706 1856 3706 1288 
Q 3706 609 3251 259 
Q 2797 -91 1919 -91 
Q 1588 -91 1214 -16 
Q 841 59 441 206 
L 441 856 
Q 825 641 1194 531 
Q 1563 422 1919 422 
Q 2459 422 2753 634 
Q 3047 847 3047 1241 
Q 3047 1584 2836 1778 
Q 2625 1972 2144 2069 
L 1759 2144 
Q 1053 2284 737 2584 
Q 422 2884 422 3419 
Q 422 4038 858 4394 
Q 1294 4750 2059 4750 
Q 2388 4750 2728 4690 
Q 3069 4631 3425 4513 
z
" transform="scale(0.015625)"/>
       <path id="DejaVuSans-20" transform="scale(0.015625)"/>
       <path id="DejaVuSans-28" d="M 1984 4856 
Q 1566 4138 1362 3434 
Q 1159 2731 1159 2009 
Q 1159 1288 1364 580 
Q 1569 -128 1984 -844 
L 1484 -844 
Q 1016 -109 783 600 
Q 550 1309 550 2009 
Q 550 2706 781 3412 
Q 1013 4119 1484 4856 
L 1984 4856 
z
" transform="scale(0.015625)"/>
       <path id="DejaVuSans-Oblique-6c" d="M 1172 4863 
L 1747 4863 
L 800 0 
L 225 0 
L 1172 4863 
z
" transform="scale(0.015625)"/>
       <path id="DejaVuSans-Oblique-62" d="M 3169 2138 
Q 3169 2591 2961 2847 
Q 2753 3103 2388 3103 
Q 2122 3103 1889 2973 
Q 1656 2844 1484 2597 
Q 1303 2338 1198 1995 
Q 1094 1653 1094 1313 
Q 1094 881 1298 636 
Q 1503 391 1863 391 
Q 2134 391 2365 517 
Q 2597 644 2772 891 
Q 2950 1147 3059 1487 
Q 3169 1828 3169 2138 
z
M 1381 2969 
Q 1594 3256 1914 3420 
Q 2234 3584 2584 3584 
Q 3122 3584 3439 3221 
Q 3756 2859 3756 2241 
Q 3756 1734 3570 1259 
Q 3384 784 3041 416 
Q 2816 172 2522 40 
Q 2228 -91 1906 -91 
Q 1566 -91 1316 65 
Q 1066 222 909 531 
L 806 0 
L 231 0 
L 1178 4863 
L 1753 4863 
L 1381 2969 
z
" transform="scale(0.015625)"/>
       <path id="DejaVuSans-Oblique-66" d="M 3059 4863 
L 2969 4384 
L 2419 4384 
Q 2106 4384 1964 4261 
Q 1822 4138 1753 3809 
L 1691 3500 
L 2638 3500 
L 2553 3053 
L 1606 3053 
L 1013 0 
L 434 0 
L 1031 3053 
L 481 3053 
L 563 3500 
L 1113 3500 
L 1159 3744 
Q 1278 4363 1576 4613 
Q 1875 4863 2516 4863 
L 3059 4863 
z
" transform="scale(0.015625)"/>
       <path id="DejaVuSans-Oblique-74" d="M 2706 3500 
L 2619 3053 
L 1472 3053 
L 1100 1153 
Q 1081 1047 1072 975 
Q 1063 903 1063 863 
Q 1063 663 1183 572 
Q 1303 481 1569 481 
L 2150 481 
L 2053 0 
L 1503 0 
Q 991 0 739 200 
Q 488 400 488 806 
Q 488 878 497 964 
Q 506 1050 525 1153 
L 897 3053 
L 409 3053 
L 500 3500 
L 978 3500 
L 1172 4494 
L 1747 4494 
L 1556 3500 
L 2706 3500 
z
" transform="scale(0.015625)"/>
       <path id="DejaVuSans-29" d="M 513 4856 
L 1013 4856 
Q 1481 4119 1714 3412 
Q 1947 2706 1947 2009 
Q 1947 1309 1714 600 
Q 1481 -109 1013 -844 
L 513 -844 
Q 928 -128 1133 580 
Q 1338 1288 1338 2009 
Q 1338 2731 1133 3434 
Q 928 4138 513 4856 
z
" transform="scale(0.015625)"/>
      </defs>
      <use xlink:href="#DejaVuSans-57" transform="translate(0 0.765625)"/>
      <use xlink:href="#DejaVuSans-2f" transform="translate(98.876953 0.765625)"/>
      <use xlink:href="#DejaVuSans-53" transform="translate(132.568359 0.765625)"/>
      <use xlink:href="#DejaVuSans-20" transform="translate(196.044922 0.765625)"/>
      <use xlink:href="#DejaVuSans-28" transform="translate(227.832031 0.765625)"/>
      <use xlink:href="#DejaVuSans-Oblique-6c" transform="translate(266.845703 0.765625)"/>
      <use xlink:href="#DejaVuSans-Oblique-62" transform="translate(294.628906 0.765625)"/>
      <use xlink:href="#DejaVuSans-2f" transform="translate(358.105469 0.765625)"/>
      <use xlink:href="#DejaVuSans-Oblique-66" transform="translate(391.796875 0.765625)"/>
      <use xlink:href="#DejaVuSans-Oblique-74" transform="translate(427.001953 0.765625)"/>
      <use xlink:href="#DejaVuSans-32" transform="translate(472.851458 39.046875) scale(0.7)"/>
      <use xlink:href="#DejaVuSans-29" transform="translate(520.121966 0.765625)"/>
     </g>
    </g>
   </g>
   <g id="matplotlib.axis_2">
    <g id="ytick_1">
     <g id="line2d_13">
      <path d="M 72 256.32 
L 518.4 256.32 
" clip-path="url(#p785ef4b383)" style="fill: none; stroke: #b0b0b0; stroke-width: 0.8; stroke-linecap: square"/>
     </g>
     <g id="line2d_14">
      <defs>
       <path id="mdf975978f7" d="M 0 0 
L -3.5 0 
" style="stroke: #000000; stroke-width: 0.8"/>
      </defs>
      <g>
       <use xlink:href="#mdf975978f7" x="72" y="256.32" style="stroke: #000000; stroke-width: 0.8"/>
      </g>
     </g>
     <g id="text_8">
      <!-- 0 -->
      <g transform="translate(58.6375 260.119219) scale(0.1 -0.1)">
       <use xlink:href="#DejaVuSans-30"/>
      </g>
     </g>
    </g>
    <g id="ytick_2">
     <g id="line2d_15">
      <path d="M 72 211.968 
L 518.4 211.968 
" clip-path="url(#p785ef4b383)" style="fill: none; stroke: #b0b0b0; stroke-width: 0.8; stroke-linecap: square"/>
     </g>
     <g id="line2d_16">
      <g>
       <use xlink:href="#mdf975978f7" x="72" y="211.968" style="stroke: #000000; stroke-width: 0.8"/>
      </g>
     </g>
     <g id="text_9">
      <!-- 20 -->
      <g transform="translate(52.275 215.767219) scale(0.1 -0.1)">
       <use xlink:href="#DejaVuSans-32"/>
       <use xlink:href="#DejaVuSans-30" x="63.623047"/>
      </g>
     </g>
    </g>
    <g id="ytick_3">
     <g id="line2d_17">
      <path d="M 72 167.616 
L 518.4 167.616 
" clip-path="url(#p785ef4b383)" style="fill: none; stroke: #b0b0b0; stroke-width: 0.8; stroke-linecap: square"/>
     </g>
     <g id="line2d_18">
      <g>
       <use xlink:href="#mdf975978f7" x="72" y="167.616" style="stroke: #000000; stroke-width: 0.8"/>
      </g>
     </g>
     <g id="text_10">
      <!-- 40 -->
      <g transform="translate(52.275 171.415219) scale(0.1 -0.1)">
       <use xlink:href="#DejaVuSans-34"/>
       <use xlink:href="#DejaVuSans-30" x="63.623047"/>
      </g>
     </g>
    </g>
    <g id="ytick_4">
     <g id="line2d_19">
      <path d="M 72 123.264 
L 518.4 123.264 
" clip-path="url(#p785ef4b383)" style="fill: none; stroke: #b0b0b0; stroke-width: 0.8; stroke-linecap: square"/>
     </g>
     <g id="line2d_20">
      <g>
       <use xlink:href="#mdf975978f7" x="72" y="123.264" style="stroke: #000000; stroke-width: 0.8"/>
      </g>
     </g>
     <g id="text_11">
      <!-- 60 -->
      <g transform="translate(52.275 127.063219) scale(0.1 -0.1)">
       <use xlink:href="#DejaVuSans-36"/>
       <use xlink:href="#DejaVuSans-30" x="63.623047"/>
      </g>
     </g>
    </g>
    <g id="ytick_5">
     <g id="line2d_21">
      <path d="M 72 78.912 
L 518.4 78.912 
" clip-path="url(#p785ef4b383)" style="fill: none; stroke: #b0b0b0; stroke-width: 0.8; stroke-linecap: square"/>
     </g>
     <g id="line2d_22">
      <g>
       <use xlink:href="#mdf975978f7" x="72" y="78.912" style="stroke: #000000; stroke-width: 0.8"/>
      </g>
     </g>
     <g id="text_12">
      <!-- 80 -->
      <g transform="translate(52.275 82.711219) scale(0.1 -0.1)">
       <use xlink:href="#DejaVuSans-38"/>
       <use xlink:href="#DejaVuSans-30" x="63.623047"/>
      </g>
     </g>
    </g>
    <g id="ytick_6">
     <g id="line2d_23">
      <path d="M 72 34.56 
L 518.4 34.56 
" clip-path="url(#p785ef4b383)" style="fill: none; stroke: #b0b0b0; stroke-width: 0.8; stroke-linecap: square"/>
     </g>
     <g id="line2d_24">
      <g>
       <use xlink:href="#mdf975978f7" x="72" y="34.56" style="stroke: #000000; stroke-width: 0.8"/>
      </g>
     </g>
     <g id="text_13">
      <!-- 100 -->
      <g transform="translate(45.9125 38.359219) scale(0.1 -0.1)">
       <use xlink:href="#DejaVuSans-31"/>
       <use xlink:href="#DejaVuSans-30" x="63.623047"/>
       <use xlink:href="#DejaVuSans-30" x="127.246094"/>
      </g>
     </g>
    </g>
    <g id="text_14">
     <!-- W/P $(lb/hp)$ -->
     <g transform="translate(39.8125 173.19) rotate(-90) scale(0.1 -0.1)">
      <defs>
       <path id="DejaVuSans-50" d="M 1259 4147 
L 1259 2394 
L 2053 2394 
Q 2494 2394 2734 2622 
Q 2975 2850 2975 3272 
Q 2975 3691 2734 3919 
Q 2494 4147 2053 4147 
L 1259 4147 
z
M 628 4666 
L 2053 4666 
Q 2838 4666 3239 4311 
Q 3641 3956 3641 3272 
Q 3641 2581 3239 2228 
Q 2838 1875 2053 1875 
L 1259 1875 
L 1259 0 
L 628 0 
L 628 4666 
z
" transform="scale(0.015625)"/>
       <path id="DejaVuSans-Oblique-68" d="M 3566 2113 
L 3156 0 
L 2578 0 
L 2988 2091 
Q 3016 2238 3031 2350 
Q 3047 2463 3047 2528 
Q 3047 2791 2881 2937 
Q 2716 3084 2419 3084 
Q 1956 3084 1617 2771 
Q 1278 2459 1178 1941 
L 800 0 
L 225 0 
L 1172 4863 
L 1747 4863 
L 1375 2950 
Q 1594 3244 1934 3414 
Q 2275 3584 2650 3584 
Q 3113 3584 3367 3334 
Q 3622 3084 3622 2631 
Q 3622 2519 3608 2391 
Q 3594 2263 3566 2113 
z
" transform="scale(0.015625)"/>
       <path id="DejaVuSans-Oblique-70" d="M 3175 2156 
Q 3175 2616 2975 2859 
Q 2775 3103 2400 3103 
Q 2144 3103 1911 2972 
Q 1678 2841 1497 2591 
Q 1319 2344 1212 1994 
Q 1106 1644 1106 1300 
Q 1106 863 1306 627 
Q 1506 391 1875 391 
Q 2147 391 2380 519 
Q 2613 647 2778 891 
Q 2956 1147 3065 1494 
Q 3175 1841 3175 2156 
z
M 1394 2969 
Q 1625 3272 1939 3428 
Q 2253 3584 2638 3584 
Q 3175 3584 3472 3232 
Q 3769 2881 3769 2247 
Q 3769 1728 3584 1258 
Q 3400 788 3053 416 
Q 2822 169 2531 39 
Q 2241 -91 1919 -91 
Q 1547 -91 1294 64 
Q 1041 219 916 525 
L 556 -1331 
L -19 -1331 
L 922 3500 
L 1497 3500 
L 1394 2969 
z
" transform="scale(0.015625)"/>
      </defs>
      <use xlink:href="#DejaVuSans-57" transform="translate(0 0.015625)"/>
      <use xlink:href="#DejaVuSans-2f" transform="translate(98.876953 0.015625)"/>
      <use xlink:href="#DejaVuSans-50" transform="translate(132.568359 0.015625)"/>
      <use xlink:href="#DejaVuSans-20" transform="translate(192.871094 0.015625)"/>
      <use xlink:href="#DejaVuSans-28" transform="translate(224.658203 0.015625)"/>
      <use xlink:href="#DejaVuSans-Oblique-6c" transform="translate(263.671875 0.015625)"/>
      <use xlink:href="#DejaVuSans-Oblique-62" transform="translate(291.455078 0.015625)"/>
      <use xlink:href="#DejaVuSans-2f" transform="translate(354.931641 0.015625)"/>
      <use xlink:href="#DejaVuSans-Oblique-68" transform="translate(388.623047 0.015625)"/>
      <use xlink:href="#DejaVuSans-Oblique-70" transform="translate(452.001953 0.015625)"/>
      <use xlink:href="#DejaVuSans-29" transform="translate(515.478516 0.015625)"/>
     </g>
    </g>
   </g>
   <g id="line2d_25">
    <path d="M 197.482725 256.32 
L 197.482725 34.56 
" clip-path="url(#p785ef4b383)" style="fill: none; stroke: #000000; stroke-width: 2; stroke-linecap: square"/>
   </g>
   <g id="line2d_26">
    <path d="M 84.328806 -1 
L 85.392 26.38223 
L 89.856 83.866672 
L 94.32 118.357338 
L 98.784 141.351115 
L 103.248 157.775241 
L 107.712 170.093336 
L 112.176 179.674077 
L 116.64 187.338669 
L 121.104 193.609699 
L 125.568 198.835557 
L 130.032 203.257438 
L 134.496 207.047621 
L 138.96 210.332446 
L 143.424 213.206668 
L 147.888 215.742746 
L 152.352 217.997038 
L 156.816 220.014036 
L 161.28 221.829334 
L 165.744 223.471747 
L 170.208 224.96485 
L 174.672 226.328117 
L 179.136 227.577779 
L 183.6 228.727468 
L 188.064 229.788719 
L 192.528 230.771359 
L 196.992 231.68381 
L 201.456 232.533334 
L 205.92 233.326223 
L 210.384 234.067958 
L 214.848 234.763334 
L 219.312 235.416566 
L 223.776 236.031373 
L 228.24 236.611048 
L 232.704 237.158519 
L 237.168 237.676397 
L 241.632 238.167018 
L 246.096 238.632479 
L 250.56 239.074667 
L 255.024 239.495285 
L 259.488 239.895874 
L 263.952 240.27783 
L 268.416 240.642425 
L 272.88 240.990815 
L 277.344 241.324058 
L 281.808 241.643121 
L 286.272 241.948889 
L 290.736 242.242177 
L 295.2 242.523734 
L 299.664 242.794249 
L 304.128 243.054359 
L 308.592 243.304655 
L 313.056 243.545679 
L 317.52 243.77794 
L 321.984 244.001905 
L 326.448 244.218012 
L 330.912 244.426667 
L 335.376 244.628249 
L 339.84 244.823111 
L 344.304 245.011585 
L 348.768 245.193979 
L 353.232 245.370582 
L 357.696 245.541667 
L 362.16 245.707488 
L 366.624 245.868283 
L 371.088 246.024279 
L 375.552 246.175687 
L 380.016 246.322706 
L 384.48 246.465524 
L 388.944 246.60432 
L 393.408 246.73926 
L 397.872 246.870503 
L 402.336 246.998199 
L 406.8 247.122489 
L 411.264 247.243509 
L 415.728 247.361386 
L 420.192 247.47624 
L 424.656 247.588186 
L 429.12 247.697334 
L 433.584 247.803786 
L 438.048 247.907643 
L 442.512 248.008996 
L 446.976 248.107937 
L 451.44 248.204549 
L 455.904 248.298915 
L 460.368 248.391111 
L 464.832 248.481212 
L 469.296 248.569289 
L 473.76 248.655408 
L 478.224 248.739634 
L 482.688 248.822029 
L 487.152 248.902653 
L 491.616 248.981561 
L 496.08 249.058807 
L 500.544 249.134445 
L 505.008 249.208523 
L 509.472 249.281089 
L 513.936 249.352189 
L 518.4 249.421867 
" clip-path="url(#p785ef4b383)" style="fill: none; stroke-dasharray: 7.4,3.2; stroke-dashoffset: 0; stroke: #1f77b4; stroke-width: 2"/>
   </g>
   <g id="line2d_27">
    <path d="M 211.028091 256.32 
L 211.028091 34.56 
" clip-path="url(#p785ef4b383)" style="fill: none; stroke: #1f77b4; stroke-width: 2; stroke-linecap: square"/>
   </g>
   <g id="line2d_28">
    <path d="M 87.086844 -1 
L 89.856 21.531585 
L 94.32 46.318858 
L 98.784 64.616062 
L 103.248 78.836641 
L 107.712 90.29952 
L 112.176 99.79439 
L 116.64 107.826768 
L 121.104 114.737259 
L 125.568 120.764845 
L 130.032 126.08282 
L 134.496 130.820313 
L 138.96 135.075784 
L 143.424 138.925793 
L 147.888 142.43089 
L 152.352 145.63968 
L 156.816 148.591687 
L 161.28 151.319429 
L 165.744 153.849935 
L 170.208 156.205883 
L 174.672 158.406462 
L 179.136 160.468031 
L 183.6 162.404634 
L 188.064 164.228407 
L 192.528 165.949897 
L 196.992 167.57832 
L 201.456 169.121772 
L 205.92 170.587393 
L 210.384 171.981512 
L 214.848 173.30976 
L 219.312 174.577166 
L 223.776 175.788238 
L 228.24 176.947029 
L 232.704 178.057195 
L 237.168 179.122045 
L 241.632 180.144579 
L 246.096 181.127529 
L 250.56 182.073384 
L 255.024 182.98442 
L 259.488 183.862722 
L 263.952 184.710205 
L 268.416 185.528629 
L 272.88 186.319619 
L 277.344 187.084674 
L 281.808 187.82518 
L 286.272 188.542423 
L 290.736 189.237596 
L 295.2 189.911808 
L 299.664 190.566092 
L 304.128 191.20141 
L 308.592 191.818662 
L 313.056 192.418687 
L 317.52 193.002273 
L 321.984 193.570157 
L 326.448 194.123029 
L 330.912 194.661542 
L 335.376 195.186304 
L 339.84 195.697892 
L 344.304 196.196848 
L 348.768 196.683683 
L 353.232 197.15888 
L 357.696 197.622896 
L 362.16 198.076163 
L 366.624 198.519088 
L 371.088 198.95206 
L 375.552 199.375445 
L 380.016 199.789593 
L 384.48 200.194834 
L 388.944 200.591483 
L 393.408 200.97984 
L 397.872 201.360189 
L 402.336 201.732802 
L 406.8 202.097938 
L 411.264 202.455843 
L 415.728 202.806754 
L 420.192 203.150894 
L 424.656 203.488479 
L 429.12 203.819714 
L 433.584 204.144797 
L 438.048 204.463914 
L 442.512 204.777247 
L 446.976 205.084967 
L 451.44 205.387242 
L 455.904 205.684228 
L 460.368 205.976079 
L 464.832 206.262942 
L 469.296 206.544956 
L 473.76 206.822256 
L 478.224 207.094973 
L 482.688 207.363231 
L 487.152 207.627151 
L 491.616 207.886848 
L 496.08 208.142434 
L 500.544 208.394015 
L 505.008 208.641697 
L 509.472 208.885577 
L 513.936 209.125753 
L 518.4 209.362317 
" clip-path="url(#p785ef4b383)" style="fill: none; stroke-dasharray: 9.6,2.4,1.5,2.4; stroke-dashoffset: 0; stroke: #ff7f0e; stroke-width: 1.5"/>
   </g>
   <g id="line2d_29">
    <path d="M 200.338438 -1 
L 201.456 0.135236 
L 205.92 4.441169 
L 210.384 8.537033 
L 214.848 12.439371 
L 219.312 16.162958 
L 223.776 19.721036 
L 228.24 23.125516 
L 232.704 26.387137 
L 237.168 29.515622 
L 241.632 32.519786 
L 246.096 35.407651 
L 250.56 38.186534 
L 255.024 40.863119 
L 259.488 43.443534 
L 263.952 45.933403 
L 268.416 48.3379 
L 272.88 50.661796 
L 277.344 52.909494 
L 281.808 55.08507 
L 286.272 57.1923 
L 290.736 59.234689 
L 295.2 61.215496 
L 299.664 63.137755 
L 304.128 65.004294 
L 308.592 66.817754 
L 313.056 68.580604 
L 317.52 70.295155 
L 321.984 71.963573 
L 326.448 73.58789 
L 330.912 75.170016 
L 335.376 76.711746 
L 339.84 78.214771 
L 344.304 79.680682 
L 348.768 81.110984 
L 353.232 82.507094 
L 357.696 83.870353 
L 362.16 85.202031 
L 366.624 86.503327 
L 371.088 87.77538 
L 375.552 89.019268 
L 380.016 90.236017 
L 384.48 91.426599 
L 388.944 92.591938 
L 393.408 93.732914 
L 397.872 94.850364 
L 402.336 95.945086 
L 406.8 97.01784 
L 411.264 98.069351 
L 415.728 99.100311 
L 420.192 100.11138 
L 424.656 101.103191 
L 429.12 102.076347 
L 433.584 103.031425 
L 438.048 103.968979 
L 442.512 104.889537 
L 446.976 105.793608 
L 451.44 106.681677 
L 455.904 107.554211 
L 460.368 108.411658 
L 464.832 109.254447 
L 469.296 110.082992 
L 473.76 110.897689 
L 478.224 111.69892 
L 482.688 112.487052 
L 487.152 113.262437 
L 491.616 114.025416 
L 496.08 114.776316 
L 500.544 115.515453 
L 505.008 116.24313 
L 509.472 116.95964 
L 513.936 117.665267 
L 518.4 118.360282 
" clip-path="url(#p785ef4b383)" style="fill: none; stroke-dasharray: 9.6,2.4,1.5,2.4; stroke-dashoffset: 0; stroke: #2ca02c; stroke-width: 1.5"/>
   </g>
   <g id="line2d_30">
    <path d="M 76.464 254.164973 
L 80.928 252.018162 
L 85.392 249.887677 
L 89.856 247.781425 
L 94.32 245.70701 
L 98.784 243.671647 
L 103.248 241.682083 
L 107.712 239.744532 
L 112.176 237.864618 
L 116.64 236.047334 
L 121.104 234.297018 
L 125.568 232.617336 
L 130.032 231.01128 
L 134.496 229.481181 
L 138.96 228.028726 
L 143.424 226.654987 
L 147.888 225.360461 
L 152.352 224.145108 
L 156.816 223.0084 
L 161.28 221.949367 
L 165.744 220.966649 
L 170.208 220.058548 
L 174.672 219.223073 
L 179.136 218.457991 
L 183.6 217.760871 
L 188.064 217.129129 
L 192.528 216.560061 
L 196.992 216.050884 
L 201.456 215.598767 
L 205.92 215.200858 
L 210.384 214.854309 
L 214.848 214.556298 
L 219.312 214.304048 
L 223.776 214.094839 
L 228.24 213.926026 
L 232.704 213.795045 
L 237.168 213.699421 
L 241.632 213.636775 
L 246.096 213.604829 
L 250.56 213.601405 
L 255.024 213.62443 
L 259.488 213.671936 
L 263.952 213.742056 
L 268.416 213.833025 
L 272.88 213.943177 
L 277.344 214.070945 
L 281.808 214.214851 
L 286.272 214.373512 
L 290.736 214.545628 
L 295.2 214.729983 
L 299.664 214.925442 
L 304.128 215.130941 
L 308.592 215.345492 
L 313.056 215.568172 
L 317.52 215.798121 
L 321.984 216.034542 
L 326.448 216.276693 
L 330.912 216.523886 
L 335.376 216.775483 
L 339.84 217.030893 
L 344.304 217.289569 
L 348.768 217.551005 
L 353.232 217.814734 
L 357.696 218.080325 
L 362.16 218.347381 
L 366.624 218.615536 
L 371.088 218.884453 
L 375.552 219.153821 
L 380.016 219.423358 
L 384.48 219.692803 
L 388.944 219.961916 
L 393.408 220.230479 
L 397.872 220.498294 
L 402.336 220.765178 
L 406.8 221.030965 
L 411.264 221.295506 
L 415.728 221.558663 
L 420.192 221.820315 
L 424.656 222.080348 
L 429.12 222.338664 
L 433.584 222.595172 
L 438.048 222.849792 
L 442.512 223.102452 
L 446.976 223.35309 
L 451.44 223.601649 
L 455.904 223.848081 
L 460.368 224.092343 
L 464.832 224.334399 
L 469.296 224.574218 
L 473.76 224.811774 
L 478.224 225.047045 
L 482.688 225.280015 
L 487.152 225.51067 
L 491.616 225.739001 
L 496.08 225.965002 
L 500.544 226.188669 
L 505.008 226.410002 
L 509.472 226.629003 
L 513.936 226.845676 
L 518.4 227.060029 
" clip-path="url(#p785ef4b383)" style="fill: none; stroke-dasharray: 2,3.3; stroke-dashoffset: 0; stroke: #d62728; stroke-width: 2"/>
   </g>
   <g id="line2d_31">
    <path d="M 76.464 255.892381 
L 80.928 251.589576 
L 85.392 247.347598 
L 89.856 243.219164 
L 94.32 239.252297 
L 98.784 235.488611 
L 103.248 231.962101 
L 107.712 228.698506 
L 112.176 225.715205 
L 116.64 223.021593 
L 121.104 220.619826 
L 125.568 218.505806 
L 130.032 216.670305 
L 134.496 215.100116 
L 138.96 213.779146 
L 143.424 212.689414 
L 147.888 211.811904 
L 152.352 211.127268 
L 156.816 210.616384 
L 161.28 210.26077 
L 165.744 210.042884 
L 170.208 209.946315 
L 174.672 209.955899 
L 179.136 210.057761 
L 183.6 210.239318 
L 188.064 210.489239 
L 192.528 210.797386 
L 196.992 211.154741 
L 201.456 211.553316 
L 205.92 211.986069 
L 210.384 212.446816 
L 214.848 212.930142 
L 219.312 213.431329 
L 223.776 213.946272 
L 228.24 214.471412 
L 232.704 215.003678 
L 237.168 215.540421 
L 241.632 216.07937 
L 246.096 216.618582 
L 250.56 217.156402 
L 255.024 217.691427 
L 259.488 218.222474 
L 263.952 218.748549 
L 268.416 219.268828 
L 272.88 219.782629 
L 277.344 220.289396 
L 281.808 220.78868 
L 286.272 221.280129 
L 290.736 221.763469 
L 295.2 222.238497 
L 299.664 222.705069 
L 304.128 223.163093 
L 308.592 223.612521 
L 313.056 224.053343 
L 317.52 224.485578 
L 321.984 224.909276 
L 326.448 225.324507 
L 330.912 225.73136 
L 335.376 226.129941 
L 339.84 226.520368 
L 344.304 226.902768 
L 348.768 227.277281 
L 353.232 227.644049 
L 357.696 228.003222 
L 362.16 228.354951 
L 366.624 228.699393 
L 371.088 229.036704 
L 375.552 229.367043 
L 380.016 229.690565 
L 384.48 230.00743 
L 388.944 230.317792 
L 393.408 230.621808 
L 397.872 230.919628 
L 402.336 231.211404 
L 406.8 231.497285 
L 411.264 231.777415 
L 415.728 232.051937 
L 420.192 232.320992 
L 424.656 232.584717 
L 429.12 232.843244 
L 433.584 233.096706 
L 438.048 233.345229 
L 442.512 233.588939 
L 446.976 233.827956 
L 451.44 234.062399 
L 455.904 234.292384 
L 460.368 234.518021 
L 464.832 234.739422 
L 469.296 234.956691 
L 473.76 235.169932 
L 478.224 235.379245 
L 482.688 235.584729 
L 487.152 235.786477 
L 491.616 235.984583 
L 496.08 236.179136 
L 500.544 236.370223 
L 505.008 236.557928 
L 509.472 236.742335 
L 513.936 236.923522 
L 518.4 237.101568 
" clip-path="url(#p785ef4b383)" style="fill: none; stroke: #9467bd; stroke-width: 2; stroke-linecap: square"/>
   </g>
   <g id="patch_3">
    <path d="M 72 256.32 
L 72 34.56 
" style="fill: none; stroke: #000000; stroke-width: 0.8; stroke-linejoin: miter; stroke-linecap: square"/>
   </g>
   <g id="patch_4">
    <path d="M 518.4 256.32 
L 518.4 34.56 
" style="fill: none; stroke: #000000; stroke-width: 0.8; stroke-linejoin: miter; stroke-linecap: square"/>
   </g>
   <g id="patch_5">
    <path d="M 72 256.32 
L 518.4 256.32 
" style="fill: none; stroke: #000000; stroke-width: 0.8; stroke-linejoin: miter; stroke-linecap: square"/>
   </g>
   <g id="patch_6">
    <path d="M 72 34.56 
L 518.4 34.56 
" style="fill: none; stroke: #000000; stroke-width: 0.8; stroke-linejoin: miter; stroke-linecap: square"/>
   </g>
   <g id="text_15">
    <!-- W/P - W/S -->
    <g transform="translate(265.887187 28.56) scale(0.12 -0.12)">
     <defs>
      <path id="DejaVuSans-2d" d="M 313 2009 
L 1997 2009 
L 1997 1497 
L 313 1497 
L 313 2009 
z
" transform="scale(0.015625)"/>
     </defs>
     <use xlink:href="#DejaVuSans-57"/>
     <use xlink:href="#DejaVuSans-2f" x="98.876953"/>
     <use xlink:href="#DejaVuSans-50" x="132.568359"/>
     <use xlink:href="#DejaVuSans-20" x="192.871094"/>
     <use xlink:href="#DejaVuSans-2d" x="224.658203"/>
     <use xlink:href="#DejaVuSans-20" x="260.742188"/>
     <use xlink:href="#DejaVuSans-57" x="292.529297"/>
     <use xlink:href="#DejaVuSans-2f" x="391.40625"/>
     <use xlink:href="#DejaVuSans-53" x="425.097656"/>
    </g>
   </g>
   <g id="PathCollection_1">
    <defs>
     <path id="m942fd96ee3" d="M 0 3 
C 0.795609 3 1.55874 2.683901 2.12132 2.12132 
C 2.683901 1.55874 3 0.795609 3 0 
C 3 -0.795609 2.683901 -1.55874 2.12132 -2.12132 
C 1.55874 -2.683901 0.795609 -3 0 -3 
C -0.795609 -3 -1.55874 -2.683901 -2.12132 -2.12132 
C -2.683901 -1.55874 -3 -0.795609 -3 0 
C -3 0.795609 -2.683901 1.55874 -2.12132 2.12132 
C -1.55874 2.683901 -0.795609 3 0 3 
z
" style="stroke: #ff0000"/>
    </defs>
    <g clip-path="url(#p785ef4b383)">
     <use xlink:href="#m942fd96ee3" x="174.13632" y="226.448928" style="fill: #ff0000; stroke: #ff0000"/>
    </g>
   </g>
   <g id="legend_1">
    <g id="patch_7">
     <path d="M 341.071875 174.663125 
L 511.4 174.663125 
Q 513.4 174.663125 513.4 172.663125 
L 513.4 41.56 
Q 513.4 39.56 511.4 39.56 
L 341.071875 39.56 
Q 339.071875 39.56 339.071875 41.56 
L 339.071875 172.663125 
Q 339.071875 174.663125 341.071875 174.663125 
z
" style="fill: #ffffff; opacity: 0.8; stroke: #cccccc; stroke-linejoin: miter"/>
    </g>
    <g id="line2d_32">
     <path d="M 343.071875 47.658438 
L 353.071875 47.658438 
L 363.071875 47.658438 
" style="fill: none; stroke: #000000; stroke-width: 2; stroke-linecap: square"/>
    </g>
    <g id="text_16">
     <!-- Stall -->
     <g transform="translate(371.071875 51.158438) scale(0.1 -0.1)">
      <defs>
       <path id="DejaVuSans-74" d="M 1172 4494 
L 1172 3500 
L 2356 3500 
L 2356 3053 
L 1172 3053 
L 1172 1153 
Q 1172 725 1289 603 
Q 1406 481 1766 481 
L 2356 481 
L 2356 0 
L 1766 0 
Q 1100 0 847 248 
Q 594 497 594 1153 
L 594 3053 
L 172 3053 
L 172 3500 
L 594 3500 
L 594 4494 
L 1172 4494 
z
" transform="scale(0.015625)"/>
       <path id="DejaVuSans-61" d="M 2194 1759 
Q 1497 1759 1228 1600 
Q 959 1441 959 1056 
Q 959 750 1161 570 
Q 1363 391 1709 391 
Q 2188 391 2477 730 
Q 2766 1069 2766 1631 
L 2766 1759 
L 2194 1759 
z
M 3341 1997 
L 3341 0 
L 2766 0 
L 2766 531 
Q 2569 213 2275 61 
Q 1981 -91 1556 -91 
Q 1019 -91 701 211 
Q 384 513 384 1019 
Q 384 1609 779 1909 
Q 1175 2209 1959 2209 
L 2766 2209 
L 2766 2266 
Q 2766 2663 2505 2880 
Q 2244 3097 1772 3097 
Q 1472 3097 1187 3025 
Q 903 2953 641 2809 
L 641 3341 
Q 956 3463 1253 3523 
Q 1550 3584 1831 3584 
Q 2591 3584 2966 3190 
Q 3341 2797 3341 1997 
z
" transform="scale(0.015625)"/>
       <path id="DejaVuSans-6c" d="M 603 4863 
L 1178 4863 
L 1178 0 
L 603 0 
L 603 4863 
z
" transform="scale(0.015625)"/>
      </defs>
      <use xlink:href="#DejaVuSans-53"/>
      <use xlink:href="#DejaVuSans-74" x="63.476562"/>
      <use xlink:href="#DejaVuSans-61" x="102.685547"/>
      <use xlink:href="#DejaVuSans-6c" x="163.964844"/>
      <use xlink:href="#DejaVuSans-6c" x="191.748047"/>
     </g>
    </g>
    <g id="line2d_33">
     <path d="M 343.071875 62.336563 
L 353.071875 62.336563 
L 363.071875 62.336563 
" style="fill: none; stroke-dasharray: 7.4,3.2; stroke-dashoffset: 0; stroke: #1f77b4; stroke-width: 2"/>
    </g>
    <g id="text_17">
     <!-- Takeoff field length -->
     <g transform="translate(371.071875 65.836563) scale(0.1 -0.1)">
      <defs>
       <path id="DejaVuSans-54" d="M -19 4666 
L 3928 4666 
L 3928 4134 
L 2272 4134 
L 2272 0 
L 1638 0 
L 1638 4134 
L -19 4134 
L -19 4666 
z
" transform="scale(0.015625)"/>
       <path id="DejaVuSans-6b" d="M 581 4863 
L 1159 4863 
L 1159 1991 
L 2875 3500 
L 3609 3500 
L 1753 1863 
L 3688 0 
L 2938 0 
L 1159 1709 
L 1159 0 
L 581 0 
L 581 4863 
z
" transform="scale(0.015625)"/>
       <path id="DejaVuSans-65" d="M 3597 1894 
L 3597 1613 
L 953 1613 
Q 991 1019 1311 708 
Q 1631 397 2203 397 
Q 2534 397 2845 478 
Q 3156 559 3463 722 
L 3463 178 
Q 3153 47 2828 -22 
Q 2503 -91 2169 -91 
Q 1331 -91 842 396 
Q 353 884 353 1716 
Q 353 2575 817 3079 
Q 1281 3584 2069 3584 
Q 2775 3584 3186 3129 
Q 3597 2675 3597 1894 
z
M 3022 2063 
Q 3016 2534 2758 2815 
Q 2500 3097 2075 3097 
Q 1594 3097 1305 2825 
Q 1016 2553 972 2059 
L 3022 2063 
z
" transform="scale(0.015625)"/>
       <path id="DejaVuSans-6f" d="M 1959 3097 
Q 1497 3097 1228 2736 
Q 959 2375 959 1747 
Q 959 1119 1226 758 
Q 1494 397 1959 397 
Q 2419 397 2687 759 
Q 2956 1122 2956 1747 
Q 2956 2369 2687 2733 
Q 2419 3097 1959 3097 
z
M 1959 3584 
Q 2709 3584 3137 3096 
Q 3566 2609 3566 1747 
Q 3566 888 3137 398 
Q 2709 -91 1959 -91 
Q 1206 -91 779 398 
Q 353 888 353 1747 
Q 353 2609 779 3096 
Q 1206 3584 1959 3584 
z
" transform="scale(0.015625)"/>
       <path id="DejaVuSans-66" d="M 2375 4863 
L 2375 4384 
L 1825 4384 
Q 1516 4384 1395 4259 
Q 1275 4134 1275 3809 
L 1275 3500 
L 2222 3500 
L 2222 3053 
L 1275 3053 
L 1275 0 
L 697 0 
L 697 3053 
L 147 3053 
L 147 3500 
L 697 3500 
L 697 3744 
Q 697 4328 969 4595 
Q 1241 4863 1831 4863 
L 2375 4863 
z
" transform="scale(0.015625)"/>
       <path id="DejaVuSans-69" d="M 603 3500 
L 1178 3500 
L 1178 0 
L 603 0 
L 603 3500 
z
M 603 4863 
L 1178 4863 
L 1178 4134 
L 603 4134 
L 603 4863 
z
" transform="scale(0.015625)"/>
       <path id="DejaVuSans-64" d="M 2906 2969 
L 2906 4863 
L 3481 4863 
L 3481 0 
L 2906 0 
L 2906 525 
Q 2725 213 2448 61 
Q 2172 -91 1784 -91 
Q 1150 -91 751 415 
Q 353 922 353 1747 
Q 353 2572 751 3078 
Q 1150 3584 1784 3584 
Q 2172 3584 2448 3432 
Q 2725 3281 2906 2969 
z
M 947 1747 
Q 947 1113 1208 752 
Q 1469 391 1925 391 
Q 2381 391 2643 752 
Q 2906 1113 2906 1747 
Q 2906 2381 2643 2742 
Q 2381 3103 1925 3103 
Q 1469 3103 1208 2742 
Q 947 2381 947 1747 
z
" transform="scale(0.015625)"/>
       <path id="DejaVuSans-6e" d="M 3513 2113 
L 3513 0 
L 2938 0 
L 2938 2094 
Q 2938 2591 2744 2837 
Q 2550 3084 2163 3084 
Q 1697 3084 1428 2787 
Q 1159 2491 1159 1978 
L 1159 0 
L 581 0 
L 581 3500 
L 1159 3500 
L 1159 2956 
Q 1366 3272 1645 3428 
Q 1925 3584 2291 3584 
Q 2894 3584 3203 3211 
Q 3513 2838 3513 2113 
z
" transform="scale(0.015625)"/>
       <path id="DejaVuSans-67" d="M 2906 1791 
Q 2906 2416 2648 2759 
Q 2391 3103 1925 3103 
Q 1463 3103 1205 2759 
Q 947 2416 947 1791 
Q 947 1169 1205 825 
Q 1463 481 1925 481 
Q 2391 481 2648 825 
Q 2906 1169 2906 1791 
z
M 3481 434 
Q 3481 -459 3084 -895 
Q 2688 -1331 1869 -1331 
Q 1566 -1331 1297 -1286 
Q 1028 -1241 775 -1147 
L 775 -588 
Q 1028 -725 1275 -790 
Q 1522 -856 1778 -856 
Q 2344 -856 2625 -561 
Q 2906 -266 2906 331 
L 2906 616 
Q 2728 306 2450 153 
Q 2172 0 1784 0 
Q 1141 0 747 490 
Q 353 981 353 1791 
Q 353 2603 747 3093 
Q 1141 3584 1784 3584 
Q 2172 3584 2450 3431 
Q 2728 3278 2906 2969 
L 2906 3500 
L 3481 3500 
L 3481 434 
z
" transform="scale(0.015625)"/>
       <path id="DejaVuSans-68" d="M 3513 2113 
L 3513 0 
L 2938 0 
L 2938 2094 
Q 2938 2591 2744 2837 
Q 2550 3084 2163 3084 
Q 1697 3084 1428 2787 
Q 1159 2491 1159 1978 
L 1159 0 
L 581 0 
L 581 4863 
L 1159 4863 
L 1159 2956 
Q 1366 3272 1645 3428 
Q 1925 3584 2291 3584 
Q 2894 3584 3203 3211 
Q 3513 2838 3513 2113 
z
" transform="scale(0.015625)"/>
      </defs>
      <use xlink:href="#DejaVuSans-54"/>
      <use xlink:href="#DejaVuSans-61" x="44.583984"/>
      <use xlink:href="#DejaVuSans-6b" x="105.863281"/>
      <use xlink:href="#DejaVuSans-65" x="160.148438"/>
      <use xlink:href="#DejaVuSans-6f" x="221.671875"/>
      <use xlink:href="#DejaVuSans-66" x="282.853516"/>
      <use xlink:href="#DejaVuSans-66" x="318.058594"/>
      <use xlink:href="#DejaVuSans-20" x="353.263672"/>
      <use xlink:href="#DejaVuSans-66" x="385.050781"/>
      <use xlink:href="#DejaVuSans-69" x="420.255859"/>
      <use xlink:href="#DejaVuSans-65" x="448.039062"/>
      <use xlink:href="#DejaVuSans-6c" x="509.5625"/>
      <use xlink:href="#DejaVuSans-64" x="537.345703"/>
      <use xlink:href="#DejaVuSans-20" x="600.822266"/>
      <use xlink:href="#DejaVuSans-6c" x="632.609375"/>
      <use xlink:href="#DejaVuSans-65" x="660.392578"/>
      <use xlink:href="#DejaVuSans-6e" x="721.916016"/>
      <use xlink:href="#DejaVuSans-67" x="785.294922"/>
      <use xlink:href="#DejaVuSans-74" x="848.771484"/>
      <use xlink:href="#DejaVuSans-68" x="887.980469"/>
     </g>
    </g>
    <g id="line2d_34">
     <path d="M 343.071875 77.014688 
L 353.071875 77.014688 
L 363.071875 77.014688 
" style="fill: none; stroke: #1f77b4; stroke-width: 2; stroke-linecap: square"/>
    </g>
    <g id="text_18">
     <!-- Landing field length -->
     <g transform="translate(371.071875 80.514688) scale(0.1 -0.1)">
      <defs>
       <path id="DejaVuSans-4c" d="M 628 4666 
L 1259 4666 
L 1259 531 
L 3531 531 
L 3531 0 
L 628 0 
L 628 4666 
z
" transform="scale(0.015625)"/>
      </defs>
      <use xlink:href="#DejaVuSans-4c"/>
      <use xlink:href="#DejaVuSans-61" x="55.712891"/>
      <use xlink:href="#DejaVuSans-6e" x="116.992188"/>
      <use xlink:href="#DejaVuSans-64" x="180.371094"/>
      <use xlink:href="#DejaVuSans-69" x="243.847656"/>
      <use xlink:href="#DejaVuSans-6e" x="271.630859"/>
      <use xlink:href="#DejaVuSans-67" x="335.009766"/>
      <use xlink:href="#DejaVuSans-20" x="398.486328"/>
      <use xlink:href="#DejaVuSans-66" x="430.273438"/>
      <use xlink:href="#DejaVuSans-69" x="465.478516"/>
      <use xlink:href="#DejaVuSans-65" x="493.261719"/>
      <use xlink:href="#DejaVuSans-6c" x="554.785156"/>
      <use xlink:href="#DejaVuSans-64" x="582.568359"/>
      <use xlink:href="#DejaVuSans-20" x="646.044922"/>
      <use xlink:href="#DejaVuSans-6c" x="677.832031"/>
      <use xlink:href="#DejaVuSans-65" x="705.615234"/>
      <use xlink:href="#DejaVuSans-6e" x="767.138672"/>
      <use xlink:href="#DejaVuSans-67" x="830.517578"/>
      <use xlink:href="#DejaVuSans-74" x="893.994141"/>
      <use xlink:href="#DejaVuSans-68" x="933.203125"/>
     </g>
    </g>
    <g id="line2d_35">
     <path d="M 343.071875 91.692813 
L 353.071875 91.692813 
L 363.071875 91.692813 
" style="fill: none; stroke-dasharray: 9.6,2.4,1.5,2.4; stroke-dashoffset: 0; stroke: #ff7f0e; stroke-width: 1.5"/>
    </g>
    <g id="text_19">
     <!-- Level 1 Climb, CL=1.9, AEO -->
     <g transform="translate(371.071875 95.192813) scale(0.1 -0.1)">
      <defs>
       <path id="DejaVuSans-76" d="M 191 3500 
L 800 3500 
L 1894 563 
L 2988 3500 
L 3597 3500 
L 2284 0 
L 1503 0 
L 191 3500 
z
" transform="scale(0.015625)"/>
       <path id="DejaVuSans-43" d="M 4122 4306 
L 4122 3641 
Q 3803 3938 3442 4084 
Q 3081 4231 2675 4231 
Q 1875 4231 1450 3742 
Q 1025 3253 1025 2328 
Q 1025 1406 1450 917 
Q 1875 428 2675 428 
Q 3081 428 3442 575 
Q 3803 722 4122 1019 
L 4122 359 
Q 3791 134 3420 21 
Q 3050 -91 2638 -91 
Q 1578 -91 968 557 
Q 359 1206 359 2328 
Q 359 3453 968 4101 
Q 1578 4750 2638 4750 
Q 3056 4750 3426 4639 
Q 3797 4528 4122 4306 
z
" transform="scale(0.015625)"/>
       <path id="DejaVuSans-6d" d="M 3328 2828 
Q 3544 3216 3844 3400 
Q 4144 3584 4550 3584 
Q 5097 3584 5394 3201 
Q 5691 2819 5691 2113 
L 5691 0 
L 5113 0 
L 5113 2094 
Q 5113 2597 4934 2840 
Q 4756 3084 4391 3084 
Q 3944 3084 3684 2787 
Q 3425 2491 3425 1978 
L 3425 0 
L 2847 0 
L 2847 2094 
Q 2847 2600 2669 2842 
Q 2491 3084 2119 3084 
Q 1678 3084 1418 2786 
Q 1159 2488 1159 1978 
L 1159 0 
L 581 0 
L 581 3500 
L 1159 3500 
L 1159 2956 
Q 1356 3278 1631 3431 
Q 1906 3584 2284 3584 
Q 2666 3584 2933 3390 
Q 3200 3197 3328 2828 
z
" transform="scale(0.015625)"/>
       <path id="DejaVuSans-62" d="M 3116 1747 
Q 3116 2381 2855 2742 
Q 2594 3103 2138 3103 
Q 1681 3103 1420 2742 
Q 1159 2381 1159 1747 
Q 1159 1113 1420 752 
Q 1681 391 2138 391 
Q 2594 391 2855 752 
Q 3116 1113 3116 1747 
z
M 1159 2969 
Q 1341 3281 1617 3432 
Q 1894 3584 2278 3584 
Q 2916 3584 3314 3078 
Q 3713 2572 3713 1747 
Q 3713 922 3314 415 
Q 2916 -91 2278 -91 
Q 1894 -91 1617 61 
Q 1341 213 1159 525 
L 1159 0 
L 581 0 
L 581 4863 
L 1159 4863 
L 1159 2969 
z
" transform="scale(0.015625)"/>
       <path id="DejaVuSans-2c" d="M 750 794 
L 1409 794 
L 1409 256 
L 897 -744 
L 494 -744 
L 750 256 
L 750 794 
z
" transform="scale(0.015625)"/>
       <path id="DejaVuSans-3d" d="M 678 2906 
L 4684 2906 
L 4684 2381 
L 678 2381 
L 678 2906 
z
M 678 1631 
L 4684 1631 
L 4684 1100 
L 678 1100 
L 678 1631 
z
" transform="scale(0.015625)"/>
       <path id="DejaVuSans-2e" d="M 684 794 
L 1344 794 
L 1344 0 
L 684 0 
L 684 794 
z
" transform="scale(0.015625)"/>
       <path id="DejaVuSans-39" d="M 703 97 
L 703 672 
Q 941 559 1184 500 
Q 1428 441 1663 441 
Q 2288 441 2617 861 
Q 2947 1281 2994 2138 
Q 2813 1869 2534 1725 
Q 2256 1581 1919 1581 
Q 1219 1581 811 2004 
Q 403 2428 403 3163 
Q 403 3881 828 4315 
Q 1253 4750 1959 4750 
Q 2769 4750 3195 4129 
Q 3622 3509 3622 2328 
Q 3622 1225 3098 567 
Q 2575 -91 1691 -91 
Q 1453 -91 1209 -44 
Q 966 3 703 97 
z
M 1959 2075 
Q 2384 2075 2632 2365 
Q 2881 2656 2881 3163 
Q 2881 3666 2632 3958 
Q 2384 4250 1959 4250 
Q 1534 4250 1286 3958 
Q 1038 3666 1038 3163 
Q 1038 2656 1286 2365 
Q 1534 2075 1959 2075 
z
" transform="scale(0.015625)"/>
       <path id="DejaVuSans-41" d="M 2188 4044 
L 1331 1722 
L 3047 1722 
L 2188 4044 
z
M 1831 4666 
L 2547 4666 
L 4325 0 
L 3669 0 
L 3244 1197 
L 1141 1197 
L 716 0 
L 50 0 
L 1831 4666 
z
" transform="scale(0.015625)"/>
       <path id="DejaVuSans-45" d="M 628 4666 
L 3578 4666 
L 3578 4134 
L 1259 4134 
L 1259 2753 
L 3481 2753 
L 3481 2222 
L 1259 2222 
L 1259 531 
L 3634 531 
L 3634 0 
L 628 0 
L 628 4666 
z
" transform="scale(0.015625)"/>
       <path id="DejaVuSans-4f" d="M 2522 4238 
Q 1834 4238 1429 3725 
Q 1025 3213 1025 2328 
Q 1025 1447 1429 934 
Q 1834 422 2522 422 
Q 3209 422 3611 934 
Q 4013 1447 4013 2328 
Q 4013 3213 3611 3725 
Q 3209 4238 2522 4238 
z
M 2522 4750 
Q 3503 4750 4090 4092 
Q 4678 3434 4678 2328 
Q 4678 1225 4090 567 
Q 3503 -91 2522 -91 
Q 1538 -91 948 565 
Q 359 1222 359 2328 
Q 359 3434 948 4092 
Q 1538 4750 2522 4750 
z
" transform="scale(0.015625)"/>
      </defs>
      <use xlink:href="#DejaVuSans-4c"/>
      <use xlink:href="#DejaVuSans-65" x="53.962891"/>
      <use xlink:href="#DejaVuSans-76" x="115.486328"/>
      <use xlink:href="#DejaVuSans-65" x="174.666016"/>
      <use xlink:href="#DejaVuSans-6c" x="236.189453"/>
      <use xlink:href="#DejaVuSans-20" x="263.972656"/>
      <use xlink:href="#DejaVuSans-31" x="295.759766"/>
      <use xlink:href="#DejaVuSans-20" x="359.382812"/>
      <use xlink:href="#DejaVuSans-43" x="391.169922"/>
      <use xlink:href="#DejaVuSans-6c" x="460.994141"/>
      <use xlink:href="#DejaVuSans-69" x="488.777344"/>
      <use xlink:href="#DejaVuSans-6d" x="516.560547"/>
      <use xlink:href="#DejaVuSans-62" x="613.972656"/>
      <use xlink:href="#DejaVuSans-2c" x="677.449219"/>
      <use xlink:href="#DejaVuSans-20" x="709.236328"/>
      <use xlink:href="#DejaVuSans-43" x="741.023438"/>
      <use xlink:href="#DejaVuSans-4c" x="810.847656"/>
      <use xlink:href="#DejaVuSans-3d" x="866.560547"/>
      <use xlink:href="#DejaVuSans-31" x="950.349609"/>
      <use xlink:href="#DejaVuSans-2e" x="1013.972656"/>
      <use xlink:href="#DejaVuSans-39" x="1045.759766"/>
      <use xlink:href="#DejaVuSans-2c" x="1109.382812"/>
      <use xlink:href="#DejaVuSans-20" x="1141.169922"/>
      <use xlink:href="#DejaVuSans-41" x="1172.957031"/>
      <use xlink:href="#DejaVuSans-45" x="1241.365234"/>
      <use xlink:href="#DejaVuSans-4f" x="1304.548828"/>
     </g>
    </g>
    <g id="line2d_36">
     <path d="M 343.071875 106.370938 
L 353.071875 106.370938 
L 363.071875 106.370938 
" style="fill: none; stroke-dasharray: 9.6,2.4,1.5,2.4; stroke-dashoffset: 0; stroke: #2ca02c; stroke-width: 1.5"/>
    </g>
    <g id="text_20">
     <!-- Balked Climb, CL=1.9, AEO -->
     <g transform="translate(371.071875 109.870938) scale(0.1 -0.1)">
      <defs>
       <path id="DejaVuSans-42" d="M 1259 2228 
L 1259 519 
L 2272 519 
Q 2781 519 3026 730 
Q 3272 941 3272 1375 
Q 3272 1813 3026 2020 
Q 2781 2228 2272 2228 
L 1259 2228 
z
M 1259 4147 
L 1259 2741 
L 2194 2741 
Q 2656 2741 2882 2914 
Q 3109 3088 3109 3444 
Q 3109 3797 2882 3972 
Q 2656 4147 2194 4147 
L 1259 4147 
z
M 628 4666 
L 2241 4666 
Q 2963 4666 3353 4366 
Q 3744 4066 3744 3513 
Q 3744 3084 3544 2831 
Q 3344 2578 2956 2516 
Q 3422 2416 3680 2098 
Q 3938 1781 3938 1306 
Q 3938 681 3513 340 
Q 3088 0 2303 0 
L 628 0 
L 628 4666 
z
" transform="scale(0.015625)"/>
      </defs>
      <use xlink:href="#DejaVuSans-42"/>
      <use xlink:href="#DejaVuSans-61" x="68.603516"/>
      <use xlink:href="#DejaVuSans-6c" x="129.882812"/>
      <use xlink:href="#DejaVuSans-6b" x="157.666016"/>
      <use xlink:href="#DejaVuSans-65" x="211.951172"/>
      <use xlink:href="#DejaVuSans-64" x="273.474609"/>
      <use xlink:href="#DejaVuSans-20" x="336.951172"/>
      <use xlink:href="#DejaVuSans-43" x="368.738281"/>
      <use xlink:href="#DejaVuSans-6c" x="438.5625"/>
      <use xlink:href="#DejaVuSans-69" x="466.345703"/>
      <use xlink:href="#DejaVuSans-6d" x="494.128906"/>
      <use xlink:href="#DejaVuSans-62" x="591.541016"/>
      <use xlink:href="#DejaVuSans-2c" x="655.017578"/>
      <use xlink:href="#DejaVuSans-20" x="686.804688"/>
      <use xlink:href="#DejaVuSans-43" x="718.591797"/>
      <use xlink:href="#DejaVuSans-4c" x="788.416016"/>
      <use xlink:href="#DejaVuSans-3d" x="844.128906"/>
      <use xlink:href="#DejaVuSans-31" x="927.917969"/>
      <use xlink:href="#DejaVuSans-2e" x="991.541016"/>
      <use xlink:href="#DejaVuSans-39" x="1023.328125"/>
      <use xlink:href="#DejaVuSans-2c" x="1086.951172"/>
      <use xlink:href="#DejaVuSans-20" x="1118.738281"/>
      <use xlink:href="#DejaVuSans-41" x="1150.525391"/>
      <use xlink:href="#DejaVuSans-45" x="1218.933594"/>
      <use xlink:href="#DejaVuSans-4f" x="1282.117188"/>
     </g>
    </g>
    <g id="line2d_37">
     <path d="M 343.071875 121.049063 
L 353.071875 121.049063 
L 363.071875 121.049063 
" style="fill: none; stroke-dasharray: 2,3.3; stroke-dashoffset: 0; stroke: #d62728; stroke-width: 2"/>
    </g>
    <g id="text_21">
     <!-- Cruise -->
     <g transform="translate(371.071875 124.549063) scale(0.1 -0.1)">
      <defs>
       <path id="DejaVuSans-72" d="M 2631 2963 
Q 2534 3019 2420 3045 
Q 2306 3072 2169 3072 
Q 1681 3072 1420 2755 
Q 1159 2438 1159 1844 
L 1159 0 
L 581 0 
L 581 3500 
L 1159 3500 
L 1159 2956 
Q 1341 3275 1631 3429 
Q 1922 3584 2338 3584 
Q 2397 3584 2469 3576 
Q 2541 3569 2628 3553 
L 2631 2963 
z
" transform="scale(0.015625)"/>
       <path id="DejaVuSans-75" d="M 544 1381 
L 544 3500 
L 1119 3500 
L 1119 1403 
Q 1119 906 1312 657 
Q 1506 409 1894 409 
Q 2359 409 2629 706 
Q 2900 1003 2900 1516 
L 2900 3500 
L 3475 3500 
L 3475 0 
L 2900 0 
L 2900 538 
Q 2691 219 2414 64 
Q 2138 -91 1772 -91 
Q 1169 -91 856 284 
Q 544 659 544 1381 
z
M 1991 3584 
L 1991 3584 
z
" transform="scale(0.015625)"/>
       <path id="DejaVuSans-73" d="M 2834 3397 
L 2834 2853 
Q 2591 2978 2328 3040 
Q 2066 3103 1784 3103 
Q 1356 3103 1142 2972 
Q 928 2841 928 2578 
Q 928 2378 1081 2264 
Q 1234 2150 1697 2047 
L 1894 2003 
Q 2506 1872 2764 1633 
Q 3022 1394 3022 966 
Q 3022 478 2636 193 
Q 2250 -91 1575 -91 
Q 1294 -91 989 -36 
Q 684 19 347 128 
L 347 722 
Q 666 556 975 473 
Q 1284 391 1588 391 
Q 1994 391 2212 530 
Q 2431 669 2431 922 
Q 2431 1156 2273 1281 
Q 2116 1406 1581 1522 
L 1381 1569 
Q 847 1681 609 1914 
Q 372 2147 372 2553 
Q 372 3047 722 3315 
Q 1072 3584 1716 3584 
Q 2034 3584 2315 3537 
Q 2597 3491 2834 3397 
z
" transform="scale(0.015625)"/>
      </defs>
      <use xlink:href="#DejaVuSans-43"/>
      <use xlink:href="#DejaVuSans-72" x="69.824219"/>
      <use xlink:href="#DejaVuSans-75" x="110.9375"/>
      <use xlink:href="#DejaVuSans-69" x="174.316406"/>
      <use xlink:href="#DejaVuSans-73" x="202.099609"/>
      <use xlink:href="#DejaVuSans-65" x="254.199219"/>
     </g>
    </g>
    <g id="line2d_38">
     <path d="M 343.071875 135.727188 
L 353.071875 135.727188 
L 363.071875 135.727188 
" style="fill: none; stroke: #9467bd; stroke-width: 2; stroke-linecap: square"/>
    </g>
    <g id="text_22">
     <!-- Maneuver -->
     <g transform="translate(371.071875 139.227188) scale(0.1 -0.1)">
      <defs>
       <path id="DejaVuSans-4d" d="M 628 4666 
L 1569 4666 
L 2759 1491 
L 3956 4666 
L 4897 4666 
L 4897 0 
L 4281 0 
L 4281 4097 
L 3078 897 
L 2444 897 
L 1241 4097 
L 1241 0 
L 628 0 
L 628 4666 
z
" transform="scale(0.015625)"/>
      </defs>
      <use xlink:href="#DejaVuSans-4d"/>
      <use xlink:href="#DejaVuSans-61" x="86.279297"/>
      <use xlink:href="#DejaVuSans-6e" x="147.558594"/>
      <use xlink:href="#DejaVuSans-65" x="210.9375"/>
      <use xlink:href="#DejaVuSans-75" x="272.460938"/>
      <use xlink:href="#DejaVuSans-76" x="335.839844"/>
      <use xlink:href="#DejaVuSans-65" x="395.019531"/>
      <use xlink:href="#DejaVuSans-72" x="456.542969"/>
     </g>
    </g>
    <g id="PathCollection_2">
     <g>
      <use xlink:href="#m942fd96ee3" x="353.071875" y="151.280313" style="fill: #ff0000; stroke: #ff0000"/>
     </g>
    </g>
    <g id="text_23">
     <!-- Design Point -->
     <g transform="translate(371.071875 153.905313) scale(0.1 -0.1)">
      <defs>
       <path id="DejaVuSans-44" d="M 1259 4147 
L 1259 519 
L 2022 519 
Q 2988 519 3436 956 
Q 3884 1394 3884 2338 
Q 3884 3275 3436 3711 
Q 2988 4147 2022 4147 
L 1259 4147 
z
M 628 4666 
L 1925 4666 
Q 3281 4666 3915 4102 
Q 4550 3538 4550 2338 
Q 4550 1131 3912 565 
Q 3275 0 1925 0 
L 628 0 
L 628 4666 
z
" transform="scale(0.015625)"/>
      </defs>
      <use xlink:href="#DejaVuSans-44"/>
      <use xlink:href="#DejaVuSans-65" x="77.001953"/>
      <use xlink:href="#DejaVuSans-73" x="138.525391"/>
      <use xlink:href="#DejaVuSans-69" x="190.625"/>
      <use xlink:href="#DejaVuSans-67" x="218.408203"/>
      <use xlink:href="#DejaVuSans-6e" x="281.884766"/>
      <use xlink:href="#DejaVuSans-20" x="345.263672"/>
      <use xlink:href="#DejaVuSans-50" x="377.050781"/>
      <use xlink:href="#DejaVuSans-6f" x="433.728516"/>
      <use xlink:href="#DejaVuSans-69" x="494.910156"/>
      <use xlink:href="#DejaVuSans-6e" x="522.693359"/>
      <use xlink:href="#DejaVuSans-74" x="586.072266"/>
     </g>
    </g>
    <g id="patch_8">
     <path d="M 343.071875 168.583438 
L 363.071875 168.583438 
L 363.071875 161.583438 
L 343.071875 161.583438 
z
" style="fill: #356854; fill-opacity: 0.5; stroke: #356854; stroke-opacity: 0.5; stroke-linejoin: miter"/>
    </g>
    <g id="text_24">
     <!-- Feasible Region -->
     <g transform="translate(371.071875 168.583438) scale(0.1 -0.1)">
      <defs>
       <path id="DejaVuSans-46" d="M 628 4666 
L 3309 4666 
L 3309 4134 
L 1259 4134 
L 1259 2759 
L 3109 2759 
L 3109 2228 
L 1259 2228 
L 1259 0 
L 628 0 
L 628 4666 
z
" transform="scale(0.015625)"/>
       <path id="DejaVuSans-52" d="M 2841 2188 
Q 3044 2119 3236 1894 
Q 3428 1669 3622 1275 
L 4263 0 
L 3584 0 
L 2988 1197 
Q 2756 1666 2539 1819 
Q 2322 1972 1947 1972 
L 1259 1972 
L 1259 0 
L 628 0 
L 628 4666 
L 2053 4666 
Q 2853 4666 3247 4331 
Q 3641 3997 3641 3322 
Q 3641 2881 3436 2590 
Q 3231 2300 2841 2188 
z
M 1259 4147 
L 1259 2491 
L 2053 2491 
Q 2509 2491 2742 2702 
Q 2975 2913 2975 3322 
Q 2975 3731 2742 3939 
Q 2509 4147 2053 4147 
L 1259 4147 
z
" transform="scale(0.015625)"/>
      </defs>
      <use xlink:href="#DejaVuSans-46"/>
      <use xlink:href="#DejaVuSans-65" x="52.019531"/>
      <use xlink:href="#DejaVuSans-61" x="113.542969"/>
      <use xlink:href="#DejaVuSans-73" x="174.822266"/>
      <use xlink:href="#DejaVuSans-69" x="226.921875"/>
      <use xlink:href="#DejaVuSans-62" x="254.705078"/>
      <use xlink:href="#DejaVuSans-6c" x="318.181641"/>
      <use xlink:href="#DejaVuSans-65" x="345.964844"/>
      <use xlink:href="#DejaVuSans-20" x="407.488281"/>
      <use xlink:href="#DejaVuSans-52" x="439.275391"/>
      <use xlink:href="#DejaVuSans-65" x="504.257812"/>
      <use xlink:href="#DejaVuSans-67" x="565.78125"/>
      <use xlink:href="#DejaVuSans-69" x="629.257812"/>
      <use xlink:href="#DejaVuSans-6f" x="657.041016"/>
      <use xlink:href="#DejaVuSans-6e" x="718.222656"/>
     </g>
    </g>
   </g>
  </g>
 </g>
 <defs>
  <clipPath id="p785ef4b383">
   <rect x="72" y="34.56" width="446.4" height="221.76"/>
  </clipPath>
 </defs>
</svg>
